<!-- public/favicon.svg -->
<svg xmlns="http://www.w3.org/2000/svg" viewBox="0 0 64 64">
  <rect width="64" height="64" rx="14" fill="#050816"/>
  <rect x="8" y="8" width="48" height="48" rx="10" fill="#0f1733" stroke="#72f6ff" stroke-width="2"/>
  <rect x="16" y="16" width="8" height="8" fill="#58ffcf"/>
  <rect x="24" y="16" width="8" height="8" fill="#58ffcf"/>
  <rect x="32" y="16" width="8" height="8" fill="#58ffcf"/>
  <rect x="40" y="16" width="8" height="8" fill="#58ffcf"/>

  <rect x="16" y="24" width="8" height="8" fill="#58ffcf"/>
  <rect x="24" y="24" width="8" height="8" fill="#ff4fe4"/>
  <rect x="32" y="24" width="8" height="8" fill="#ff4fe4"/>
  <rect x="40" y="24" width="8" height="8" fill="#58ffcf"/>

  <rect x="16" y="32" width="8" height="8" fill="#58ffcf"/>
  <rect x="24" y="32" width="8" height="8" fill="#ff4fe4"/>
  <rect x="32" y="32" width="8" height="8" fill="#ff4fe4"/>
  <rect x="40" y="32" width="8" height="8" fill="#58ffcf"/>

  <rect x="16" y="40" width="8" height="8" fill="#58ffcf"/>
  <rect x="24" y="40" width="8" height="8" fill="#58ffcf"/>
  <rect x="32" y="40" width="8" height="8" fill="#58ffcf"/>
  <rect x="40" y="40" width="8" height="8" fill="#58ffcf"/>
</svg>
